<svg width="117" height="30" viewBox="0 0 117 30" fill="none" xmlns="http://www.w3.org/2000/svg">
<g clip-path="url(#clip0_9_1869)">
<path fill-rule="evenodd" clip-rule="evenodd" d="M6.26606 15.8297C7.21861 18.6046 4.70961 20.9682 2.57643 22.3415H2.57525L2.54806 22.3474C1.46788 23.047 -0.588481 24.4711 2.0907 24.6637C3.3491 24.7267 4.60014 24.4377 5.70352 23.8294C5.76711 23.7973 5.85007 23.7568 5.94703 23.7095C6.62484 23.3788 7.98697 22.7141 8.20306 22.2457C8.13968 22.3837 8.07024 22.531 7.99712 22.6862C7.28899 24.1888 6.23635 26.4225 7.01297 27.9007C8.05652 29.9063 10.731 26.1434 11.2628 25.3634C11.3296 25.2659 11.4246 25.107 11.5417 24.9111C12.2588 23.7116 13.8047 21.1257 14.7882 22.7634C15.2574 23.5318 15.4053 24.4477 15.5535 25.3654C15.7408 26.5255 15.9285 27.6886 16.7665 28.5602C18.5889 30.4558 19.6147 27.5438 19.6147 26.1115C19.6157 26.0108 19.6125 25.8672 19.6085 25.6941C19.5766 24.3062 19.5012 21.0232 21.2728 22.7906C21.5333 23.0511 21.8209 23.3875 22.132 23.7515C23.2365 25.0436 24.6375 26.6827 26.1773 26.5038C27.9039 26.3124 26.0506 23.9854 25.0889 22.7778C24.8571 22.4867 24.6771 22.2607 24.6114 22.1453C24.9092 22.3828 27.592 24.0457 27.592 22.6712C27.5992 21.8693 26.6114 21.1644 25.8414 20.615C25.6093 20.4494 25.3971 20.2979 25.2378 20.1622C22.6969 17.9959 23.2051 15.8486 24.3455 13.0642C26.3416 8.24238 23.0585 2.71502 18.2958 1.27793C13.149 -0.265528 7.45734 2.16547 5.54279 7.29456C5.05786 8.60046 4.85057 9.99313 4.93415 11.3837C5.00341 12.5662 5.39929 13.5717 5.80851 14.6112C5.96491 15.0085 6.12326 15.4107 6.26606 15.8297ZM15.3637 13.6594C17.234 13.6594 18.7503 12.1431 18.7503 10.2727C18.7503 8.40235 17.234 6.8861 15.3637 6.8861C13.4933 6.8861 11.977 8.40235 11.977 10.2727C11.977 12.1431 13.4933 13.6594 15.3637 13.6594Z" fill="#2236F1"/>
<path fill-rule="evenodd" clip-rule="evenodd" d="M6.26606 15.8297C7.21861 18.6046 4.70961 20.9682 2.57643 22.3415H2.57525L2.54806 22.3474C1.46788 23.047 -0.588481 24.4711 2.0907 24.6637C3.3491 24.7267 4.60014 24.4377 5.70352 23.8294C5.76711 23.7973 5.85007 23.7568 5.94703 23.7095C6.62484 23.3788 7.98697 22.7141 8.20306 22.2457C8.13968 22.3837 8.07024 22.531 7.99712 22.6862C7.28899 24.1888 6.23635 26.4225 7.01297 27.9007C8.05652 29.9063 10.731 26.1434 11.2628 25.3634C11.3296 25.2659 11.4246 25.107 11.5417 24.9111C12.2588 23.7116 13.8047 21.1257 14.7882 22.7634C15.2574 23.5318 15.4053 24.4477 15.5535 25.3654C15.7408 26.5255 15.9285 27.6886 16.7665 28.5602C18.5889 30.4558 19.6147 27.5438 19.6147 26.1115C19.6157 26.0108 19.6125 25.8672 19.6085 25.6941C19.5766 24.3062 19.5012 21.0232 21.2728 22.7906C21.5333 23.0511 21.8209 23.3875 22.132 23.7515C23.2365 25.0436 24.6375 26.6827 26.1773 26.5038C27.9039 26.3124 26.0506 23.9854 25.0889 22.7778C24.8571 22.4867 24.6771 22.2607 24.6114 22.1453C24.9092 22.3828 27.592 24.0457 27.592 22.6712C27.5992 21.8693 26.6114 21.1644 25.8414 20.615C25.6093 20.4494 25.3971 20.2979 25.2378 20.1622C22.6969 17.9959 23.2051 15.8486 24.3455 13.0642C26.3416 8.24238 23.0585 2.71502 18.2958 1.27793C13.149 -0.265528 7.45734 2.16547 5.54279 7.29456C5.05786 8.60046 4.85057 9.99313 4.93415 11.3837C5.00341 12.5662 5.39929 13.5717 5.80851 14.6112C5.96491 15.0085 6.12326 15.4107 6.26606 15.8297ZM15.3637 13.6594C17.234 13.6594 18.7503 12.1431 18.7503 10.2727C18.7503 8.40235 17.234 6.8861 15.3637 6.8861C13.4933 6.8861 11.977 8.40235 11.977 10.2727C11.977 12.1431 13.4933 13.6594 15.3637 13.6594Z" fill="url(#paint0_radial_9_1869)" fill-opacity="0.35"/>
</g>
<path d="M42.3641 17.0031C42.3641 13.3808 40.2399 11.1224 37.3107 11.1224C34.3816 11.1224 32.2574 13.3808 32.2574 17.0031C32.2574 20.6254 34.3816 22.8838 37.3107 22.8838C40.2399 22.8838 42.3641 20.6254 42.3641 17.0031ZM41.0225 17.0031C41.0225 19.977 39.3902 21.5869 37.3107 21.5869C35.2312 21.5869 33.599 19.977 33.599 17.0031C33.599 14.0292 35.2312 12.4193 37.3107 12.4193C39.3902 12.4193 41.0225 14.0292 41.0225 17.0031ZM53.9074 14.8565C53.4826 12.5088 51.6043 11.1224 49.3013 11.1224C46.3721 11.1224 44.2479 13.3808 44.2479 17.0031C44.2479 20.6254 46.3721 22.8838 49.3013 22.8838C51.6043 22.8838 53.4826 21.4975 53.9074 19.1497H52.5211C52.1857 20.7372 50.8217 21.5869 49.3013 21.5869C47.2218 21.5869 45.5895 19.977 45.5895 17.0031C45.5895 14.0292 47.2218 12.4193 49.3013 12.4193C50.8217 12.4193 52.1857 13.269 52.5211 14.8565H53.9074ZM55.5215 12.5088H59.1215V22.7273H60.5078V12.5088H64.1078V11.279H55.5215V12.5088ZM75.4303 17.0031C75.4303 13.3808 73.3061 11.1224 70.3769 11.1224C67.4478 11.1224 65.3236 13.3808 65.3236 17.0031C65.3236 20.6254 67.4478 22.8838 70.3769 22.8838C73.3061 22.8838 75.4303 20.6254 75.4303 17.0031ZM74.0887 17.0031C74.0887 19.977 72.4564 21.5869 70.3769 21.5869C68.2975 21.5869 66.6652 19.977 66.6652 17.0031C66.6652 14.0292 68.2975 12.4193 70.3769 12.4193C72.4564 12.4193 74.0887 14.0292 74.0887 17.0031ZM77.7613 22.7273H79.1476V18.5459H81.652C84.3184 18.5459 85.5202 16.9248 85.5202 14.9013C85.5202 12.8777 84.3184 11.279 81.6296 11.279H77.7613V22.7273ZM79.1476 17.3161V12.5088H81.5849C83.4464 12.5088 84.1563 13.5261 84.1563 14.9013C84.1563 16.2764 83.4464 17.3161 81.6072 17.3161H79.1476ZM87.7534 22.7273H94.4614V21.4975H89.1398V11.279H87.7534V22.7273ZM104.121 11.279V18.7472C104.121 20.4242 102.969 21.6316 101.058 21.6316C99.1459 21.6316 97.9943 20.4242 97.9943 18.7472V11.279H96.608V18.859C96.608 21.2068 98.3633 22.9285 101.058 22.9285C103.752 22.9285 105.507 21.2068 105.507 18.859V11.279H104.121ZM114.537 14.141H115.878C115.817 12.4137 114.223 11.1224 112.01 11.1224C109.819 11.1224 108.097 12.397 108.097 14.3199C108.097 15.8627 109.215 16.7795 111.004 17.2938L112.412 17.6963C113.62 18.0317 114.693 18.4565 114.693 19.5969C114.693 20.849 113.486 21.6763 111.898 21.6763C110.534 21.6763 109.327 21.0726 109.215 19.7757H107.784C107.918 21.654 109.438 22.9285 111.898 22.9285C114.537 22.9285 116.035 21.4751 116.035 19.6192C116.035 17.4727 114 16.7795 112.815 16.4665L111.652 16.1534C110.802 15.9298 109.438 15.4826 109.438 14.2528C109.438 13.1572 110.445 12.3522 111.965 12.3522C113.351 12.3522 114.402 13.0119 114.537 14.141Z" fill="white"/>
<circle cx="70.3181" cy="16.7727" r="1.77273" fill="#2236F1"/>
<defs>
<radialGradient id="paint0_radial_9_1869" cx="0" cy="0" r="1" gradientUnits="userSpaceOnUse" gradientTransform="translate(16.9151 1.58384) rotate(106.535) scale(21.7081 20.5272)">
<stop stop-color="white"/>
<stop offset="1" stop-color="white" stop-opacity="0"/>
</radialGradient>
<clipPath id="clip0_9_1869">
<rect width="28.3636" height="28.3636" fill="white" transform="translate(0 0.818176)"/>
</clipPath>
</defs>
</svg>
